HIERARCHY
ROOT base
{
	OFFSET 0.0 0.0 0.0
	CHANNELS 6 Xposition Yposition Zposition Zrotation Yrotation Xrotation
	JOINT root
	{
		OFFSET 0 0 0
		CHANNELS 6 Xposition Yposition Zposition Zrotation Yrotation Xrotation
		JOINT chest
		{
			OFFSET 0 4.72302 0
			CHANNELS 3 Zrotation Yrotation Xrotation
			JOINT neck
			{
				OFFSET 0 4.47788 0
				CHANNELS 3 Zrotation Yrotation Xrotation
				End Site
				{
					OFFSET 0.0 0.0 0.0
				}
			}
			JOINT right_shoulder
			{
				OFFSET -0.481 4.87 3.6622
				CHANNELS 3 Zrotation Yrotation Xrotation
				JOINT right_elbow
				{
					OFFSET 0 -5.49576 0
					CHANNELS 3 Zrotation Yrotation Xrotation
					JOINT right_wrist
					{
						OFFSET 0 -5.17894 0
						CHANNELS 3 Zrotation Yrotation Xrotation
						End Site
						{
							OFFSET 0.0 0.0 0.0
						}
					}
				}
			}
			JOINT left_shoulder
			{
				OFFSET -0.481 4.87 -3.6622
				CHANNELS 3 Zrotation Yrotation Xrotation
				JOINT left_elbow
				{
					OFFSET 0 -5.49576 0
					CHANNELS 3 Zrotation Yrotation Xrotation
					JOINT left_wrist
					{
						OFFSET 0 -5.17894 0
						CHANNELS 3 Zrotation Yrotation Xrotation
						End Site
						{
							OFFSET 0.0 0.0 0.0
						}
					}
				}
			}
		}
		JOINT right_hip
		{
			OFFSET 0 0 1.69774
			CHANNELS 3 Zrotation Yrotation Xrotation
			JOINT right_knee
			{
				OFFSET 0 -8.43092 0
				CHANNELS 3 Zrotation Yrotation Xrotation
				JOINT right_ankle
				{
					OFFSET 0 -8.1974 0
					CHANNELS 3 Zrotation Yrotation Xrotation
					End Site
					{
						OFFSET 0.0 0.0 0.0
					}
				}
			}
		}
		JOINT left_hip
		{
			OFFSET 0 0 -1.69774
			CHANNELS 3 Zrotation Yrotation Xrotation
			JOINT left_knee
			{
				OFFSET 0 -8.43092 0
				CHANNELS 3 Zrotation Yrotation Xrotation
				JOINT left_ankle
				{
					OFFSET 0 -8.1974 0
					CHANNELS 3 Zrotation Yrotation Xrotation
					End Site
					{
						OFFSET 0.0 0.0 0.0
					}
				}
			}
		}
	}
	JOINT red_arrow
	{
		OFFSET 0 0 0
		CHANNELS 3 Zrotation Yrotation Xrotation
		End Site
		{
			OFFSET 0.0 0.0 0.0
		}
	}
	JOINT blue_arrow
	{
		OFFSET 0 0 0
		CHANNELS 3 Zrotation Yrotation Xrotation
		End Site
		{
			OFFSET 0.0 0.0 0.0
		}
	}
}
MOTION
Frames: 16
Frame Time: 0.0333333333333333
591.110612428188 0 -297.356013596058 0 35.2008863056441 0 0 15.9513923406601 0 -17.9135537390842 11.4965537216936 3.48286384425153 -8.241773776125 1.10049407624542 -6.92804548228002 5.68804918695632 -2.99893465809668 -0.783362133459507 -1.1827704021458 26.2662935111731 -34.8486388050424 77.9901530377646 0 0 0 0 0 -32.8496387769243 5.08120157556505 31.5369505841577 73.8057400955938 0 0 0 0 0 2.58202703013032 -7.2995237549631 -16.6995621673501 -70.5984266953284 0 0 -29.2741175502725 -2.38057860251385 19.1455768432895 47.8763956085449 5.43181022820689 -13.2980484250507 -42.0041505086773 0 0 12.1282661255406 7.47465752036124 7.29689624375138 0 0 0 0 0 0
592.551678073406 0 -298.571900549531 0 35.928530970162 0 0 16.0771427750587 0 -20.1882431866673 13.0056463269392 2.01784102232624 -6.2753577224548 -0.568605735885677 -4.20875723011242 3.55074634740222 -3.10895449985211 -0.61117563834552 -13.1967335560175 22.4370692936176 -36.1320162512071 72.2923955717616 0 0 0 0 0 -14.706526606445 -3.95293720233894 32.9683905373015 78.3315941943735 0 0 0 0 0 15.9983062139969 -4.665375563947 -19.0221692224005 -80.5233472575173 0 0 -20.6449728640606 -4.48496071010806 19.7547201497398 44.2473760912561 3.78578739815316 -13.0830575623465 -44.212395063572 0 0 19.9263849893662 5.06898407229732 7.12883624637915 0 0 0 0 0 0
594.039854246378 0 -299.677289688587 0 36.7301483402351 0 0 16.2635882258415 0 -21.919881071257 14.1756486683765 -1.22597653423531 -5.60471030684282 -4.60166508483964 0.285551138568817 0.58615131260316 -2.5396367019851 -0.416480899803842 -25.9564393443417 17.8032636924591 -38.9695329279567 63.5483464151763 0 0 0 0 0 5.89865214752199 -14.9365050376969 34.6401162285056 83.0384551363477 0 0 0 0 0 33.2294933945714 -0.667411735444243 -18.9817984179341 -88.1022822549143 0 0 -10.6564162605009 -7.4537640515633 20.1363321899372 38.6399604678212 0.0609007404450404 -10.4617645566563 -42.5292759426354 0 0 25.446446514386 3.22526535778122 5.90765238613136 0 0 0 0 0 0
595.647142183781 0 -300.876996016502 0 37.4908827748651 0 0 16.439894425869 0 -22.3319951598799 13.410525109766 -4.72729445969706 -6.18789794720279 -8.9585269336303 5.73372443070237 -2.66997296142922 -1.45777846539416 -0.124524047076699 -40.4474915984227 13.0530715899169 -42.5123027167282 52.5188783962642 0 0 0 0 0 27.5633822842588 -26.4400789897123 35.1292088178503 88.1303953135381 0 0 0 0 0 52.8462407125063 4.76133467255997 -15.89819339739 -91.6011627704692 0 0 -0.07552077014082 -10.3324516749027 19.2065529594445 29.3285413294905 -3.40991698276024 -5.64381769692808 -36.8888169335796 0 0 29.5079662898295 2.94294219575011 4.49466001247188 0 0 0 0 0 0
597.483037781715 0 -302.289331507683 0 38.0067435810654 0 0 16.4838577747345 0 -20.5137116666588 9.19079080676875 -7.61114255599671 -8.25361239094527 -12.1780003570429 11.1253758681912 -4.91954057622718 0.00541593142952107 0.487284826241224 -54.7494593985273 5.7188348477988 -45.1292090846971 46.4425747709862 0 0 0 0 0 48.6599848502786 -36.2105713523091 33.1696012221916 93.8071977591675 0 0 0 0 0 71.8826451782641 9.31587024989585 -7.98645656210679 -87.7669472874234 0 0 9.89983179222856 -12.352070091197 17.7370546593582 14.6509100694286 -3.45703767688195 0.67195233710628 -27.0387928107345 0 0 30.8869614500272 4.645761893742 3.45051728927047 0 0 0 0 0 0
599.446058294177 0 -303.811136114597 0 38.229861010849 0 0 16.4647773265839 0 -18.5197013112683 4.020439890806 -9.23675311589211 -10.356718252632 -14.8491524262679 15.1677861805198 -6.2082683421761 1.90647095359698 1.48191857959896 -64.3953699943388 -2.77146683154247 -44.4663995703853 46.0553986676949 0 0 0 0 0 62.664540806962 -41.0601916239547 30.5887146142702 99.42587529496 0 0 0 0 0 86.0160982471486 10.3397298988601 0.694950872958106 -76.3695745439632 0 0 17.1141747947613 -12.8020841094948 16.3265994167017 0.761082354160527 -0.855500215411047 4.22716958173139 -18.8295355133301 0 0 22.062565137474 7.96063022972416 1.75928873279221 0 0 0 0 0 0
601.390644355118 0 -305.329968714714 0 38.2346537770262 0 0 16.5498612999916 0 -16.7567621102974 0.0871958051403743 -9.4529337546083 -13.7767291515783 -16.7616005987255 17.0468493169461 -5.91864970355919 3.75485751269824 3.14802512036992 -66.0877567422585 -7.85271735304026 -41.3035112676477 49.3458457154431 0 0 0 0 0 64.8871201432338 -41.9045116240785 31.3154257218091 103.22812549269 0 0 0 0 0 90.926855041732 8.83063842063656 6.85579432938221 -62.3778568971112 0 0 21.48112167266 -11.2895808146999 14.2043661755538 -9.52083824058138 3.3802645789719 4.89777736842414 -13.1897859901744 0 0 0.030279207940254 7.54895344515586 -1.74038202376813 0 0 0 0 0 0
603.209464651346 0 -306.767950707674 0 38.1858972129124 0 0 16.750793671608 0 -16.4195188035883 -0.888601244850015 -8.89186904122083 -17.2243946194624 -19.0515552884935 17.5128981549842 -4.50704802923264 4.78680515647972 4.51195512234748 -61.9039187771843 -9.55020660845897 -37.5079134607023 54.5891872808705 0 0 0 0 0 58.1968203309606 -40.619133621856 34.6563363218548 104.396552293626 0 0 0 0 0 88.2422232553726 6.74546658681463 9.15235227534676 -50.4275632648655 0 0 22.7566349290087 -8.53989181809294 11.6286542949339 -12.8984847390108 4.59859109788107 5.18776383294695 -9.33089388743096 0 0 -18.9854223600052 5.31905262097535 -8.04721841219019 0 0 0 0 0 0
605.041583409905 0 -308.204471743107 0 38.1370521572121 0 0 16.935297203064 0 -15.8235472254718 -0.892894118359916 -8.43095003148498 -20.6627051230937 -19.9598057807728 17.3987737233271 -2.33204170200477 4.98612652640722 5.14409575898759 -54.9237447823025 -10.8066736896272 -34.0861396933288 60.2877370488172 0 0 0 0 0 47.6881368308729 -38.765774410043 38.7977144206102 103.25577409845 0 0 0 0 0 79.7098402322066 4.71006341868994 10.3699168377981 -40.3848799961019 0 0 21.8673202227194 -6.5945067541941 10.4229268977952 -12.8595333180996 7.93207096935011 6.22529676027906 -8.4156271943081 0 0 -30.950302938089 1.83950049615271 -14.8493244713701 0 0 0 0 0 0
606.934063251317 0 -309.682065868378 0 38.1075982667034 0 0 16.9622680783272 0 -14.7546111817171 -0.541171686338644 -7.77751129376842 -22.8344452459693 -19.6039940807468 16.0927563137548 0.0993944378565376 4.77253712028154 5.25262109430327 -46.8413811005664 -12.1328254695348 -31.5454456441011 65.7879927647801 0 0 0 0 0 35.1096666967062 -36.573795477066 42.3259835485192 100.238230674085 0 0 0 0 0 67.8727993598139 2.73055081568014 10.6790120962549 -31.6637734449386 0 0 18.9889013097803 -5.68754340396401 10.2873549682926 -10.5231423103551 9.78726886935517 7.90228537089097 -13.3945379860185 0 0 -34.4496025159516 -0.598074240071278 -15.6069766658473 0 0 0 0 0 0
608.851860308647 0 -311.242858856916 0 38.0804046094344 0 0 16.7509774208069 0 -13.1488609379959 -0.503134060754296 -6.38084916270352 -23.8229982630744 -17.7599508176803 13.4441916820087 2.71094142271732 4.13211969583858 4.82143260705368 -37.5940533103854 -12.1582732918033 -30.4146555799904 70.7111248166336 0 0 0 0 0 21.3237519332859 -33.6274979430028 44.4970046598003 95.3367639822785 0 0 0 0 0 54.7056098552435 0.311896126961032 9.67059805432225 -25.9095303144996 0 0 13.8063861952777 -5.36306185549711 11.1079710243014 -6.9701581314595 8.05170688381071 8.94658598659657 -23.1319894922844 0 0 -33.6143190861554 -1.78564396059609 -17.0736505008312 0 0 0 0 0 0
610.739346480369 0 -312.803049641848 0 37.9451195624044 0 0 16.3015514135361 0 -11.8909418589794 -2.51533042728337 -4.83030876036988 -23.6733409163322 -13.2700425175365 9.84055919612802 5.45765591564256 3.0112561888049 4.12974817884866 -26.550485143763 -9.51676744034696 -30.5613326046348 74.9091639861986 0 0 0 0 0 7.31414838877112 -29.6430219980877 44.8312635356006 88.07812387582 0 0 0 0 0 43.5808016911327 -3.18736632956212 9.18207592781486 -24.2359990716104 0 0 3.46027919072233 -4.67533665337795 -0.374225877260617 -1.31568143339833 6.33149467040612 9.69698719791335 -36.4480682415333 0 0 -32.8122787768366 -3.14005940596821 -19.5063433081211 0 0 0 0 0 0
612.326820489764 0 -314.076760089397 0 37.3871025278198 0 0 16.1177560329437 0 -14.8180499151243 -10.2573307618402 -4.04051991043817 -18.3893709401246 -4.8913018760578 4.67946643042513 4.49625430217487 1.62014056719632 4.05317898392017 -14.8258457898885 -4.0422388688993 -31.3269101553956 78.2075647892353 0 0 0 0 0 -8.74745965873383 -25.2287098913551 43.4353934332781 77.6876712801814 0 0 0 0 0 45.6651872931762 -2.459635160863 12.8693578677762 -34.9475405676786 0 0 3.71715286045618 0.0135074549806565 -5.76664181339394 11.2624097666094 6.57168658994253 11.9519265477973 -51.9624809411912 0 0 -25.2176396055296 -1.90327409021758 -21.5068231018015 0 0 0 0 0 0
613.703140243888 0 -315.278532373905 0 36.6094523194442 0 0 16.2971526622772 0 -18.2914700893547 -14.0591324497992 -3.17074067768254 -15.3419291399553 0.237863943501589 1.55855655353792 4.55300067832211 0.653644113428226 3.1175056522966 -0.0892603006241405 6.35883929537799 -33.159115504864 82.3314827459272 0 0 0 0 0 -21.1421073973685 -19.2011551815559 43.1435682244465 71.7299841351244 0 0 0 0 0 44.0488724558621 -1.69702455250929 13.3047598267917 -38.127253173508 0 0 11.4262545303979 4.46247132551123 -5.30910335626732 27.3617648801377 4.09061431130371 15.1841682411345 -63.4680438811044 0 0 -15.0723048520431 1.46369971859178 -21.5251710628379 0 0 0 0 0 0
615.099898862839 0 -316.640863329172 0 35.7323466472223 0 0 16.5276444077492 0 -19.7178451843749 -15.7376576984799 -1.11405474740838 -14.7983559710134 5.06747014698518 -2.16125577630017 5.46209232862226 -0.205746303178914 3.00854559481756 16.1334619950257 17.9422141880366 -35.4058790989435 86.7057817772135 0 0 0 0 0 -33.5327054785285 -13.0483197789176 43.4113553057043 63.1237955167466 0 0 0 0 0 38.6698618084198 1.50476131242908 10.74896497943 -37.5814015305135 0 0 17.8550098904711 6.80681229202078 -3.35897735405266 43.5701736139291 0.935609480675321 15.9567570558996 -72.6379416720617 0 0 -6.39095072030242 5.54583317621703 -22.3143205584385 0 0 0 0 0 0
616.662815755606 0 -318.14775595665 0 34.9435456062676 0 0 16.7780105829239 0 -19.0484816672459 -14.2006550052694 1.13656049631014 -16.2926943862796 8.12355540575706 -6.26009403841892 7.77423258830213 -0.683313659268108 3.35342845645336 32.1701078969194 29.0213247310195 -37.433736294139 91.6784327005496 0 0 0 0 0 -47.2772329184278 -7.90775686091854 43.9656099714298 52.648614424454 0 0 0 0 0 28.04604760454 5.04634830136297 5.43606247843545 -32.0442047364246 0 0 22.570987088202 6.09083607537713 -1.04848370134714 59.1711980527269 -2.30757676417393 12.8128636208676 -78.1101389709142 0 0 2.35327971683346 9.92425066956127 -23.4052124324844 0 0 0 0 0 0
